<?xml version="1.0" standalone="no"?>
<!DOCTYPE svg PUBLIC "-//W3C//DTD SVG 20010904//EN"
 "http://www.w3.org/TR/2001/REC-SVG-20010904/DTD/svg10.dtd">
<svg version="1.0" xmlns="http://www.w3.org/2000/svg"
 width="148.000000pt" height="148.000000pt" viewBox="0 0 148.000000 148.000000"
 preserveAspectRatio="xMidYMid meet">
<metadata>
Created by potrace 1.11, written by Peter Selinger 2001-2013
</metadata>
<g transform="translate(0.000000,148.000000) scale(0.100000,-0.100000)"
fill="#000000" stroke="none">
<path d="M575 1414 c-85 -19 -212 -78 -280 -131 -234 -182 -314 -525 -186
-800 133 -284 456 -440 752 -364 200 51 358 178 444 356 208 429 -92 929 -570
951 -59 2 -114 -2 -160 -12z m328 -47 c201 -65 366 -241 418 -448 27 -104 23
-249 -10 -349 -74 -230 -285 -405 -527 -436 -48 -6 -54 -4 -54 12 0 18 65 43
249 95 45 13 60 26 172 145 79 83 94 110 109 192 6 34 17 83 25 109 23 75 19
118 -27 263 -41 128 -46 137 -92 180 -27 25 -75 68 -105 96 -74 68 -82 71
-234 105 -137 31 -161 31 -252 -2 -27 -9 -79 -25 -115 -35 -61 -17 -70 -24
-160 -116 -52 -55 -103 -113 -112 -131 -22 -41 -60 -204 -66 -281 -3 -49 3
-80 38 -190 l43 -131 84 -80 c51 -49 87 -91 91 -110 6 -20 16 -31 33 -35 13
-3 19 -9 14 -12 -6 -4 -28 4 -49 17 -203 123 -326 376 -296 612 36 283 233
492 521 553 73 15 215 5 302 -23z m-125 -87 c39 0 59 -15 45 -32 -13 -15 -6
-98 8 -98 5 0 9 -7 9 -15 0 -11 -11 -15 -35 -15 -33 0 -36 2 -33 27 2 20 -2
28 -15 31 -14 3 -18 -1 -15 -20 2 -19 -2 -24 -26 -26 -44 -5 -51 10 -22 53 28
40 29 46 26 84 -1 19 2 22 15 17 9 -3 29 -6 43 -6z m-158 -25 c0 -14 -9 -44
-21 -66 -11 -23 -18 -43 -16 -45 8 -9 37 8 37 21 0 14 18 30 25 23 2 -1 6 -15
10 -29 6 -25 3 -28 -55 -47 -75 -26 -83 -16 -50 59 24 57 19 77 -11 39 -16
-21 -20 -23 -29 -10 -18 27 -6 43 45 61 66 23 65 23 65 -6z m-170 -120 c0 -55
2 -63 16 -58 9 3 14 13 11 24 -8 28 12 34 36 11 l20 -21 -33 -28 c-82 -69 -90
-67 -90 23 0 41 -4 63 -10 59 -5 -3 -10 -15 -10 -25 0 -28 -21 -36 -37 -14 -7
10 -12 21 -11 25 6 15 92 78 100 73 4 -3 8 -34 8 -69z m582 35 c53 -39 57 -49
29 -74 -20 -18 -39 -7 -26 15 8 12 -25 40 -38 32 -4 -3 -3 -11 4 -19 14 -17 5
-29 -24 -29 -14 0 -21 -7 -22 -22 -2 -33 -7 -34 -40 -8 l-29 24 37 33 c33 29
43 46 46 81 1 12 9 8 63 -33z m103 -110 c30 -47 31 -60 7 -60 -10 0 -31 -22
-51 -51 l-33 -51 -19 28 c-19 29 -17 44 7 44 16 0 18 9 5 29 -8 12 -12 11 -27
-3 -17 -17 -18 -17 -35 6 -23 29 -19 42 14 45 28 2 64 19 85 40 18 18 19 18
47 -27z m-818 2 c5 -20 58 -56 82 -57 22 0 22 -17 2 -44 l-18 -24 -37 36 c-22
23 -46 37 -61 37 -30 0 -30 3 -8 41 20 33 33 37 40 11z m422 -82 c33 -18 83
-52 112 -77 78 -66 148 -98 163 -74 4 5 -3 7 -14 4 -29 -8 -175 85 -159 101
11 11 113 -15 157 -41 46 -26 66 -60 49 -81 -7 -9 -5 -11 9 -5 17 6 17 5 5
-10 -7 -9 -21 -17 -30 -17 -29 1 -100 38 -163 86 -59 46 -62 47 -127 45 -36
-1 -98 -9 -138 -18 -67 -15 -73 -15 -97 1 -14 9 -26 26 -26 37 0 27 19 61 30
54 5 -3 12 0 15 6 25 39 129 34 214 -11z m-440 -6 c19 -14 22 -23 18 -50 -5
-32 -4 -34 18 -28 30 7 35 -4 19 -43 -10 -22 -19 -31 -29 -27 -8 4 -15 10 -15
16 0 14 -65 38 -88 31 -26 -6 -27 4 -7 55 14 33 39 62 55 62 3 0 16 -7 29 -16z
m898 -66 c14 -13 23 -33 23 -53 0 -17 5 -36 12 -43 15 -15 9 -20 -31 -28 l-33
-7 7 45 c8 55 -11 78 -50 60 -30 -14 -32 -42 -5 -67 35 -32 19 -60 -19 -36
-22 14 -42 90 -30 112 23 43 89 52 126 17z m-520 -120 c19 -17 23 -19 17 -5
-3 10 -1 17 5 17 6 0 11 -6 11 -12 0 -10 3 -9 9 1 7 10 12 10 30 -5 15 -13 21
-30 21 -61 0 -23 -3 -44 -7 -46 -5 -3 -30 6 -58 19 -27 13 -58 23 -68 24 -10
0 -17 6 -15 13 6 15 48 22 48 8 0 -6 5 -11 11 -11 5 0 -1 15 -15 33 -39 51
-32 65 11 25z m243 -15 c-1 -23 -39 -108 -45 -101 -3 3 -1 17 5 32 5 15 10 41
10 57 0 19 5 29 15 29 8 0 15 -8 15 -17z m-478 -20 c22 -20 23 -37 2 -57 -18
-19 -61 -21 -66 -4 -3 7 -10 8 -17 4 -9 -6 -10 -11 -2 -19 14 -14 -5 -37 -31
-37 -15 0 -18 -5 -14 -17 4 -10 -1 -23 -14 -35 -23 -22 -26 -40 -5 -32 10 4
18 -3 25 -20 10 -26 4 -56 -10 -56 -5 0 -6 -9 -3 -20 3 -11 9 -20 14 -20 5 0
6 7 3 15 -4 10 0 15 10 15 9 0 20 -8 23 -17 4 -10 13 -23 21 -29 12 -8 12 -15
3 -32 -6 -12 -19 -22 -27 -22 -28 0 -94 60 -94 85 0 12 -7 28 -15 35 -17 14
-20 66 -5 75 6 4 7 23 4 45 -5 30 -2 42 14 58 11 11 23 29 26 40 9 27 30 43
69 52 51 12 69 11 89 -7z m518 -16 c0 -26 -33 -92 -63 -124 -34 -37 -39 -26
-8 17 16 22 34 60 40 85 12 47 31 61 31 22z m262 18 c12 -5 13 -16 3 -68 -6
-34 -14 -61 -18 -59 -4 1 -16 2 -27 2 -11 0 -20 7 -20 15 0 8 7 15 16 15 9 0
12 5 8 11 -4 8 -26 10 -60 6 l-54 -6 0 33 c0 42 8 49 34 32 24 -15 86 -26 86
-15 0 4 -5 11 -10 14 -25 15 11 32 42 20z m-798 -102 c-2 7 4 13 16 14 11 1
20 -3 20 -9 0 -6 -3 -9 -6 -5 -3 3 -14 -2 -24 -11 -10 -9 -30 -27 -44 -39 -14
-12 -22 -24 -17 -27 15 -9 0 -46 -18 -45 -12 0 -13 2 -2 6 11 4 8 10 -10 24
-20 16 -21 18 -4 12 18 -6 19 -5 6 10 -12 16 -12 17 5 11 18 -5 18 -4 -1 11
-20 17 -20 17 4 10 16 -5 21 -4 17 4 -5 7 -1 8 11 4 16 -6 17 -5 3 12 -14 17
-14 18 10 5 l25 -13 -20 24 -20 23 27 -17 c18 -11 26 -13 22 -4z m323 1 c3 -8
1 -29 -4 -47 -8 -28 -13 -32 -40 -29 -37 4 -50 -12 -33 -42 10 -19 8 -29 -11
-60 -15 -26 -25 -34 -32 -27 -7 7 -6 19 3 38 7 16 17 46 21 68 4 22 14 57 21
78 11 31 18 37 41 37 16 0 30 -7 34 -16z m-251 -29 c-3 -8 -1 -15 5 -15 6 0 7
-5 4 -10 -4 -6 -11 -8 -16 -5 -5 4 -6 -2 -2 -11 5 -13 3 -16 -10 -11 -9 3 -17
3 -17 -2 0 -10 -51 -22 -62 -15 -4 3 -5 11 -2 19 4 8 10 13 14 10 12 -8 40 6
40 19 0 16 21 36 38 36 8 0 12 -6 8 -15z m62 -1 c-2 -10 3 -19 11 -22 9 -3 11
0 6 8 -5 8 -3 11 6 8 19 -6 18 -28 -2 -41 -12 -7 -22 -3 -42 17 -29 29 -28 46
4 46 13 0 19 -6 17 -16z m583 -1 c52 -31 50 -96 -3 -136 -31 -23 -67 -18 -98
15 -44 47 -7 134 58 137 8 1 27 -7 43 -16z m-331 -39 c0 -3 -10 -15 -22 -25
l-23 -20 27 16 c15 9 33 15 40 13 8 -3 1 -12 -17 -22 -16 -9 -21 -14 -10 -11
11 4 29 9 40 12 20 4 20 4 1 -11 -11 -9 -25 -16 -30 -17 -6 0 -2 -4 8 -8 16
-6 12 -10 -24 -25 -38 -15 -44 -15 -60 -1 -9 8 -21 15 -26 15 -11 0 -39 59
-31 66 3 3 14 0 25 -7 16 -10 24 -9 47 9 26 21 55 29 55 16z m-190 -47 c0 -27
-11 -45 -59 -95 -65 -68 -92 -76 -129 -42 -12 11 -26 38 -32 61 -9 33 -8 45 5
65 17 26 35 32 35 11 0 -8 9 -22 20 -32 25 -23 22 -58 -4 -63 -15 -3 -18 0
-13 18 3 14 1 20 -6 17 -7 -2 -13 -13 -15 -25 -2 -15 4 -25 22 -34 23 -10 29
-8 50 11 13 12 29 19 39 16 19 -8 37 22 37 61 0 25 25 62 43 63 4 1 7 -14 7
-32z m-80 -7 c0 -5 -4 -10 -10 -10 -5 0 -10 5 -10 10 0 6 5 10 10 10 6 0 10
-4 10 -10z m470 -28 c1 -19 44 -72 59 -72 26 0 19 -25 -16 -55 -43 -39 -77
-44 -93 -15 -6 11 -7 20 -3 20 4 0 -4 8 -17 17 -14 10 -29 18 -34 18 -18 0
-16 22 4 40 20 18 21 18 36 -3 15 -22 44 -30 44 -13 0 5 -10 15 -22 24 l-23
15 24 26 c25 27 41 26 41 -2z m-271 -46 c11 -13 8 -24 -19 -66 -63 -99 -145
-128 -194 -69 -14 17 -26 34 -26 37 1 17 75 62 92 56 30 -9 55 5 77 42 17 29
24 33 39 25 10 -5 24 -17 31 -25z m134 -55 c-2 -16 10 -30 42 -53 25 -18 45
-35 45 -39 0 -6 -53 -29 -66 -29 -2 0 -4 9 -4 19 0 21 -17 37 -28 27 -3 -4 -1
-16 6 -26 7 -11 12 -22 12 -24 0 -8 -60 -24 -64 -17 -3 4 1 29 10 56 13 46 13
49 -8 69 l-22 20 30 13 c37 15 50 11 47 -16z m-359 -98 c41 -46 47 -88 12 -88
-27 0 -56 44 -63 95 -7 51 0 50 51 -7z m-76 -5 c13 -13 16 -29 5 -27 -20 3
-24 -2 -13 -16 11 -13 10 -14 -5 -9 -13 5 -16 4 -11 -4 4 -7 3 -12 -3 -12 -5
0 -13 5 -16 10 -3 6 -1 10 6 10 8 0 8 4 -1 15 -25 30 10 61 38 33z m263 -54
c4 -22 9 -56 9 -76 0 -35 -2 -38 -27 -38 -14 0 -54 5 -88 11 -52 9 -69 17
-101 50 -21 21 -33 39 -26 39 7 0 12 -5 12 -10 0 -14 46 -31 65 -24 9 4 22 22
30 40 8 21 21 34 32 34 10 1 29 7 43 15 30 16 39 9 51 -41z m-215 -71 c-9 -10
-54 21 -49 34 4 11 10 10 29 -8 13 -12 22 -24 20 -26z"/>
<path d="M757 1225 c-4 -8 -2 -17 3 -20 6 -4 10 3 10 14 0 25 -6 27 -13 6z"/>
<path d="M1088 1033 c-10 -2 -18 -9 -18 -14 0 -14 16 -11 30 6 7 8 11 14 9 14
-2 -1 -12 -3 -21 -6z"/>
<path d="M630 981 c8 -6 23 -11 33 -11 9 0 40 -11 69 -25 28 -14 53 -23 56
-21 8 8 -93 53 -133 60 -29 5 -36 4 -25 -3z"/>
<path d="M253 928 c2 -7 10 -13 17 -13 7 0 15 6 18 13 2 7 -5 12 -18 12 -13 0
-20 -5 -17 -12z"/>
<path d="M1078 589 c-35 -20 -15 -69 28 -69 34 0 45 38 18 64 -18 19 -23 19
-46 5z"/>
<path d="M994 409 c-3 -6 -2 -15 2 -19 12 -12 38 5 30 19 -9 14 -23 14 -32 0z"/>
<path d="M400 280 c0 -5 4 -10 9 -10 6 0 13 5 16 10 3 6 -1 10 -9 10 -9 0 -16
-4 -16 -10z"/>
</g>
</svg>
